<svg width="1440" height="1024" viewBox="0 0 1440 1024" fill="none" xmlns="http://www.w3.org/2000/svg">
<path d="M1791.32 1077.51C1767.31 1049.43 1662.75 994.041 1436.56 997.156C1153.83 1001.05 976.892 1086 710.159 1107.24C513.29 1122.91 20.2095 1120.69 -186.953 1025.12" stroke="#082032" stroke-width="7.78561"/>
<path d="M1740.43 1037.6C1716.42 1009.52 1611.86 954.134 1385.67 957.249C1102.94 961.142 926.003 1046.09 659.269 1067.33C462.401 1083.01 -30.6802 1080.78 -237.843 985.212" stroke="#082032" stroke-width="7.78561"/>
<path d="M1692.28 997.157C1668.27 969.076 1563.71 913.692 1337.52 916.806C1054.78 920.7 877.851 1005.65 611.118 1026.89C414.249 1042.57 -78.8315 1040.34 -285.994 944.77" stroke="#082032" stroke-width="7.78561"/>
<path d="M1647.13 956.169C1623.12 928.088 1518.56 872.704 1292.37 875.819C1009.64 879.712 832.705 964.664 565.972 985.902C369.103 1001.58 -123.978 999.353 -331.141 903.782" stroke="#082032" stroke-width="7.78561"/>
<path d="M1605.33 914.623C1581.32 886.541 1476.76 831.157 1250.57 834.272C967.835 838.166 790.902 923.118 524.169 944.356C327.3 960.031 -165.781 957.806 -372.943 862.235" stroke="#082032" stroke-width="7.78561"/>
<path d="M1567.31 872.505C1543.3 844.423 1438.74 789.039 1212.55 792.154C929.814 796.048 752.881 881 486.147 902.238C289.278 917.913 -203.802 915.689 -410.965 820.118" stroke="#082032" stroke-width="7.78561"/>
<path d="M1533.61 829.806C1509.61 801.725 1405.05 746.341 1178.86 749.456C896.122 753.35 719.189 838.301 452.456 859.539C255.587 875.215 -237.494 872.99 -444.656 777.419" stroke="#082032" stroke-width="7.78561"/>
<path d="M1504.95 786.53C1480.95 758.449 1376.39 703.065 1150.2 706.18C867.462 710.073 690.529 795.025 423.796 816.263C226.927 831.938 -266.154 829.714 -473.317 734.143" stroke="#082032" stroke-width="7.78561"/>
<path d="M1482.21 742.7C1458.21 714.618 1353.65 659.234 1127.46 662.349C844.72 666.243 667.787 751.195 401.054 772.433C204.185 788.108 -288.896 785.883 -496.059 690.312" stroke="#082032" stroke-width="7.78561"/>
<path d="M1466.51 698.383C1442.51 670.301 1337.95 614.917 1111.76 618.032C829.022 621.926 652.089 706.878 385.355 728.116C188.486 743.791 -304.594 741.566 -511.757 645.995" stroke="#082032" stroke-width="7.78561"/>
<path d="M1459.27 653.72C1435.26 625.639 1330.7 570.255 1104.51 573.37C821.777 577.263 644.844 662.215 378.111 683.453C181.242 699.129 -311.838 696.904 -519.001 601.333" stroke="#082032" stroke-width="7.78561"/>
<path d="M1462.22 608.98C1438.21 580.899 1333.65 525.515 1107.46 528.63C824.725 532.523 647.792 617.475 381.059 638.713C184.19 654.389 -308.891 652.164 -516.054 556.593" stroke="#082032" stroke-width="7.78561"/>
<path d="M1477.36 564.632C1453.35 536.55 1348.79 481.166 1122.6 484.281C839.866 488.175 662.933 573.127 396.2 594.365C199.331 610.04 -293.749 607.816 -500.912 512.245" stroke="#082032" stroke-width="7.78561"/>
<path d="M1506.73 521.431C1482.73 493.349 1378.17 437.965 1151.98 441.08C869.239 444.974 692.306 529.926 425.573 551.164C228.704 566.839 -264.376 564.615 -471.539 469.044" stroke="#082032" stroke-width="7.78561"/>
<path d="M1559.81 473.013C1535.8 444.932 1431.25 389.548 1205.06 392.663C922.318 396.556 745.385 481.508 478.652 502.746C281.783 518.421 -211.297 516.197 -418.46 420.626" stroke="#082032" stroke-width="7.78561"/>
<path d="M1602.01 431.53C1578 403.449 1473.44 348.065 1247.25 351.18C964.517 355.073 787.584 440.025 520.851 461.263C323.982 476.938 -169.099 474.714 -376.262 379.143" stroke="#082032" stroke-width="7.78561"/>
<path d="M1635.45 388.801C1611.45 360.72 1506.89 305.336 1280.7 308.451C997.961 312.344 821.028 397.296 554.295 418.534C357.426 434.21 -135.655 431.985 -342.817 336.414" stroke="#082032" stroke-width="7.78561"/>
<path d="M1659.94 345.12C1635.93 317.039 1531.37 261.655 1305.18 264.77C1022.44 268.663 845.51 353.615 578.777 374.853C381.908 390.528 -111.172 388.304 -318.335 292.733" stroke="#082032" stroke-width="7.78561"/>
<path d="M1675.46 300.793C1651.46 272.712 1546.9 217.328 1320.71 220.442C1037.97 224.336 861.039 309.288 594.306 330.526C397.437 346.201 -95.644 343.977 -302.807 248.406" stroke="#082032" stroke-width="7.78561"/>
<path d="M1682.23 256.119C1658.23 228.037 1553.67 172.653 1327.48 175.768C1044.74 179.662 867.806 264.614 601.073 285.852C404.204 301.527 -88.8764 299.303 -296.039 203.732" stroke="#082032" stroke-width="7.78561"/>
<path d="M1680.58 211.368C1656.58 183.287 1552.02 127.903 1325.83 131.018C1043.09 134.912 866.158 219.864 599.425 241.101C402.556 256.777 -90.5249 254.552 -297.688 158.981" stroke="#082032" stroke-width="7.78561"/>
<path d="M1670.97 166.777C1646.96 138.695 1542.4 83.3114 1316.21 86.4263C1033.47 90.32 856.541 175.272 589.808 196.51C392.939 212.185 -100.142 209.961 -307.305 114.39" stroke="#082032" stroke-width="7.78561"/>
<path d="M1653.87 122.542C1629.86 94.4608 1525.3 39.0768 1299.11 42.1917C1016.38 46.0853 839.444 131.037 572.711 152.275C375.842 167.951 -117.239 165.726 -324.401 70.155" stroke="#082032" stroke-width="7.78561"/>
<path d="M1629.79 78.8251C1605.78 50.7438 1501.22 -4.64022 1275.03 -1.52532C992.295 2.3683 815.362 87.3203 548.629 108.558C351.76 124.233 -141.321 122.009 -348.484 26.438" stroke="#082032" stroke-width="7.78561"/>
<path d="M1599.17 35.7607C1575.17 7.67931 1470.61 -47.7047 1244.42 -44.5898C961.682 -40.6962 784.749 44.2558 518.016 65.4938C321.147 81.169 -171.934 78.9445 -379.097 -16.6265" stroke="#082032" stroke-width="7.78561"/>
<path d="M1562.41 -3.52352C1538.41 -31.6049 1433.85 -86.9888 1207.66 -83.874C924.92 -79.9803 747.987 4.97166 481.254 26.2096C284.385 41.8849 -208.696 39.6603 -415.859 -55.9106" stroke="#082032" stroke-width="7.78561"/>
</svg>
