<svg id="visual" viewBox="0 0 960 540" width="960" height="540" xmlns="http://www.w3.org/2000/svg"
    xmlns:xlink="http://www.w3.org/1999/xlink" version="1.1">
    <path
        d="M0 312L53.3 318.8C106.7 325.7 213.3 339.3 320 341C426.7 342.7 533.3 332.3 640 332.7C746.7 333 853.3 344 906.7 349.5L960 355L960 541L906.7 541C853.3 541 746.7 541 640 541C533.3 541 426.7 541 320 541C213.3 541 106.7 541 53.3 541L0 541Z"
        fill="#e9e3e3"></path>
    <path
        d="M0 343L53.3 340C106.7 337 213.3 331 320 338.2C426.7 345.3 533.3 365.7 640 365.8C746.7 366 853.3 346 906.7 336L960 326L960 541L906.7 541C853.3 541 746.7 541 640 541C533.3 541 426.7 541 320 541C213.3 541 106.7 541 53.3 541L0 541Z"
        fill="#e6dedc"></path>
    <path
        d="M0 365L53.3 369C106.7 373 213.3 381 320 381.7C426.7 382.3 533.3 375.7 640 375.8C746.7 376 853.3 383 906.7 386.5L960 390L960 541L906.7 541C853.3 541 746.7 541 640 541C533.3 541 426.7 541 320 541C213.3 541 106.7 541 53.3 541L0 541Z"
        fill="#cec8c4"></path>
    <path
        d="M0 447L53.3 443.2C106.7 439.3 213.3 431.7 320 425C426.7 418.3 533.3 412.7 640 414.5C746.7 416.3 853.3 425.7 906.7 430.3L960 435L960 541L906.7 541C853.3 541 746.7 541 640 541C533.3 541 426.7 541 320 541C213.3 541 106.7 541 53.3 541L0 541Z"
        fill="#ccc7c3"></path>
    <path
        d="M0 440L53.3 445C106.7 450 213.3 460 320 460.7C426.7 461.3 533.3 452.7 640 454.3C746.7 456 853.3 468 906.7 474L960 480L960 541L906.7 541C853.3 541 746.7 541 640 541C533.3 541 426.7 541 320 541C213.3 541 106.7 541 53.3 541L0 541Z"
        fill="#aeadab"></path>
    <path
        d="M0 491L53.3 494.8C106.7 498.7 213.3 506.3 320 509.5C426.7 512.7 533.3 511.3 640 505.2C746.7 499 853.3 488 906.7 482.5L960 477L960 541L906.7 541C853.3 541 746.7 541 640 541C533.3 541 426.7 541 320 541C213.3 541 106.7 541 53.3 541L0 541Z"
        fill="#9b9b92"></path>
</svg>